<svg width="12" height="12" viewBox="0 0 12 12" fill="none" 
    xmlns="http://www.w3.org/2000/svg">
    <path d="M2.09822 3C1.9013 2.67803 1.8 2.28171 1.8 1.8C1.8 0.850251 2.51421 0 3.6 0C4.6872 0 5.56396 0.728176 6 1.8683C6.43604 0.728176 7.3128 0 8.4 0C9.48579 0 10.2 0.850251 10.2 1.8C10.2 2.28171 10.0987 2.67803 9.90178 3H10.8C11.4627 3 12 3.53726 12 4.2V5.4C12 6.06274 11.4627 6.6 10.8 6.6V10.8C10.8 11.4627 10.2627 12 9.6 12H2.4C1.73726 12 1.2 11.4627 1.2 10.8V6.6C0.537258 6.6 0 6.06274 0 5.4V4.2C0 3.53726 0.537258 3 1.2 3H2.09822ZM5.39992 4.20002H1.19992V5.40002H5.39992V4.20002ZM10.8 5.40002H6.59996V4.20002H10.8V5.40002ZM5.40004 10.8V6.59996H2.40004V10.8H5.40004ZM9.59996 10.8H6.59996V6.59996H9.59996V10.8ZM3.6 1.20002C3.22779 1.20002 3 1.4712 3 1.80002C3 2.55196 3.6102 2.90949 5.05765 2.98471C4.89678 1.86698 4.29731 1.20002 3.6 1.20002ZM6.90004 2.98471C7.06091 1.86698 7.66039 1.20002 8.35769 1.20002C8.72991 1.20002 8.95769 1.4712 8.95769 1.80002C8.95769 2.55196 8.34749 2.90949 6.90004 2.98471Z" fill="#8F8E94" />
</svg>