<svg width="14" height="12" viewBox="0 0 14 12" fill="none" 
    xmlns="http://www.w3.org/2000/svg">
    <path d="M12.3822 0.7575C12.2267 0.315 11.7911 0 11.2778 0H2.72222C2.20889 0 1.78111 0.315 1.61778 0.7575L0 5.25V11.25C0 11.6625 0.35 12 0.777778 12H1.55556C1.98333 12 2.33333 11.6625 2.33333 11.25V10.5H11.6667V11.25C11.6667 11.6625 12.0167 12 12.4444 12H13.2222C13.65 12 14 11.6625 14 11.25V5.25L12.3822 0.7575ZM2.72222 8.25C2.07667 8.25 1.55556 7.7475 1.55556 7.125C1.55556 6.5025 2.07667 6 2.72222 6C3.36778 6 3.88889 6.5025 3.88889 7.125C3.88889 7.7475 3.36778 8.25 2.72222 8.25ZM11.2778 8.25C10.6322 8.25 10.1111 7.7475 10.1111 7.125C10.1111 6.5025 10.6322 6 11.2778 6C11.9233 6 12.4444 6.5025 12.4444 7.125C12.4444 7.7475 11.9233 8.25 11.2778 8.25ZM1.55556 4.5L2.72222 1.125H11.2778L12.4444 4.5H1.55556Z" fill="#8F8E94" />
</svg>