<svg width="12" height="12" viewBox="0 0 12 12" fill="none" 
    xmlns="http://www.w3.org/2000/svg">
    <path d="M7.98142 0.371163C8.61164 0.1911 9.2685 0.556025 9.44856 1.18625C9.47886 1.29227 9.49423 1.40201 9.49423 1.51228V2.50578H10.681C11.3364 2.50578 11.8678 3.03712 11.8678 3.69256V10.8132C11.8678 11.4687 11.3364 12 10.681 12H1.18678C0.531339 12 0 11.4687 0 10.8132H0.0158474C0.0053125 10.7494 0 10.6848 0 10.6199V3.54676C0 3.01688 0.351259 2.55121 0.860745 2.40564L7.98142 0.371163ZM4.83018 10.8132H10.681V6.06612H9.49423V8.58546C9.49423 9.11533 9.14297 9.58101 8.63348 9.72657L4.83018 10.8132ZM9.49423 3.69256H10.681V4.87934H9.49423V3.69256ZM1.18678 3.54674V10.6199L8.30745 8.58544V1.51226L1.18678 3.54674ZM7.12067 4.87934C7.12067 5.20706 6.855 5.47273 6.52728 5.47273C6.19956 5.47273 5.93389 5.20706 5.93389 4.87934C5.93389 4.55162 6.19956 4.28595 6.52728 4.28595C6.855 4.28595 7.12067 4.55162 7.12067 4.87934Z" fill="#8F8E94" />
</svg>